<svg xmlns="http://www.w3.org/2000/svg" xmlns:xlink="http://www.w3.org/1999/xlink" width="100" height="100" viewBox="0 0 100 100"><rect width="100%" height="100%" fill="#0060bd"></rect><g transform="translate(50 50) scale(0.69 0.69) rotate(0) translate(-50 -50)" style="fill:#ffffff"><svg fill="#ffffff" xmlns="http://www.w3.org/2000/svg" xmlns:xlink="http://www.w3.org/1999/xlink" xml:space="preserve" version="1.1" style="shape-rendering:geometricPrecision;text-rendering:geometricPrecision;image-rendering:optimizeQuality;" viewBox="0 0 333 333" x="0px" y="0px" fill-rule="evenodd" clip-rule="evenodd"><defs><style type="text/css">
   
    .fil0 {fill:#ffffff}
   
  </style></defs><g><path class="fil0" d="M9 137l16 91c1,5 3,12 9,17 12,9 58,41 58,59l0 23 65 0 -1 -86c0,-6 -1,-10 -15,-16l-64 -29c-16,-7 -27,17 -11,24l54 24c3,1 2,6 -2,5l-60 -27c-7,-3 -6,-5 -8,-11l-17 -76c-5,-18 -27,-14 -24,2zm158 -111c40,-44 113,-7 113,57 0,43 -80,99 -113,121 -34,-22 -114,-78 -114,-121 0,-63 72,-102 114,-57zm-14 34l27 0 0 32 32 0 0 27 -32 0 0 32 -27 0 0 -32 -32 0 0 -27 32 0 0 -32zm14 130c29,-19 101,-72 101,-107 0,-57 -69,-91 -101,-36 -33,-56 -102,-20 -102,36 0,35 73,88 102,107zm158 -53l-17 91c0,5 -2,12 -9,17 -12,9 -57,41 -57,59l0 23 -65 0 0 -86c0,-6 1,-10 15,-16l65 -29c16,-7 26,17 10,24l-54 24c-3,1 -2,6 2,5l60 -27c7,-3 7,-5 8,-11l18 -76c4,-18 26,-14 24,2z"></path></g></svg></g></svg>